<svg width="214" height="44" viewBox="0 0 214 44" fill="none" xmlns="http://www.w3.org/2000/svg">
<rect width="114" height="44" fill="#4F378A"/>
<path d="M19.375 29.8535V32H8.83398V29.8535H19.375ZM9.36719 12.0938V32H6.72852V12.0938H9.36719ZM17.9805 20.6523V22.7988H8.83398V20.6523H17.9805ZM19.2383 12.0938V14.2539H8.83398V12.0938H19.2383ZM23.9688 17.207L27.209 22.5938L30.4902 17.207H33.457L28.6172 24.5078L33.6074 32H30.6816L27.2637 26.4492L23.8457 32H20.9062L25.8828 24.5078L21.0566 17.207H23.9688ZM38.6797 20.0508V37.6875H36.1367V17.207H38.4609L38.6797 20.0508ZM48.6465 24.4805V24.7676C48.6465 25.8431 48.5189 26.8411 48.2637 27.7617C48.0085 28.6732 47.6348 29.4661 47.1426 30.1406C46.6595 30.8151 46.0625 31.3392 45.3516 31.7129C44.6406 32.0866 43.8249 32.2734 42.9043 32.2734C41.9655 32.2734 41.1361 32.1185 40.416 31.8086C39.696 31.4987 39.0853 31.0475 38.584 30.4551C38.0827 29.8626 37.6816 29.1517 37.3809 28.3223C37.0892 27.4928 36.8887 26.5586 36.7793 25.5195V23.9883C36.8887 22.8945 37.0938 21.9147 37.3945 21.0488C37.6953 20.1829 38.0918 19.4447 38.584 18.834C39.0853 18.2142 39.6914 17.7448 40.4023 17.4258C41.1133 17.0977 41.9336 16.9336 42.8633 16.9336C43.793 16.9336 44.6178 17.1159 45.3379 17.4805C46.0579 17.8359 46.6641 18.3464 47.1562 19.0117C47.6484 19.6771 48.0176 20.4746 48.2637 21.4043C48.5189 22.3249 48.6465 23.3503 48.6465 24.4805ZM46.1035 24.7676V24.4805C46.1035 23.7422 46.026 23.0495 45.8711 22.4023C45.7161 21.7461 45.4746 21.1719 45.1465 20.6797C44.8275 20.1784 44.4173 19.7865 43.916 19.5039C43.4147 19.2122 42.8177 19.0664 42.125 19.0664C41.487 19.0664 40.931 19.1758 40.457 19.3945C39.9922 19.6133 39.5957 19.9095 39.2676 20.2832C38.9395 20.6478 38.6706 21.0671 38.4609 21.541C38.2604 22.0059 38.11 22.4889 38.0098 22.9902V26.5312C38.1921 27.1693 38.4473 27.7708 38.7754 28.3359C39.1035 28.8919 39.541 29.3431 40.0879 29.6895C40.6348 30.0267 41.3229 30.1953 42.1523 30.1953C42.8359 30.1953 43.4238 30.054 43.916 29.7715C44.4173 29.4798 44.8275 29.0833 45.1465 28.582C45.4746 28.0807 45.7161 27.5065 45.8711 26.8594C46.026 26.2031 46.1035 25.5059 46.1035 24.7676ZM58.0117 32.2734C56.9818 32.2734 56.0475 32.1003 55.209 31.7539C54.3796 31.3984 53.6641 30.9017 53.0625 30.2637C52.4701 29.6257 52.0143 28.8691 51.6953 27.9941C51.3763 27.1191 51.2168 26.1621 51.2168 25.123V24.5488C51.2168 23.3457 51.3945 22.2747 51.75 21.3359C52.1055 20.388 52.5885 19.5859 53.1992 18.9297C53.8099 18.2734 54.5026 17.7767 55.2773 17.4395C56.0521 17.1022 56.8542 16.9336 57.6836 16.9336C58.7409 16.9336 59.6523 17.1159 60.418 17.4805C61.1927 17.8451 61.8262 18.3555 62.3184 19.0117C62.8105 19.6589 63.1751 20.4245 63.4121 21.3086C63.6491 22.1836 63.7676 23.1406 63.7676 24.1797V25.3145H52.7207V23.25H61.2383V23.0586C61.2018 22.4023 61.0651 21.7643 60.8281 21.1445C60.6003 20.5247 60.2357 20.0143 59.7344 19.6133C59.2331 19.2122 58.5495 19.0117 57.6836 19.0117C57.1094 19.0117 56.5807 19.1348 56.0977 19.3809C55.6146 19.6178 55.1999 19.9733 54.8535 20.4473C54.5072 20.9212 54.2383 21.5 54.0469 22.1836C53.8555 22.8672 53.7598 23.6556 53.7598 24.5488V25.123C53.7598 25.8249 53.8555 26.4857 54.0469 27.1055C54.2474 27.7161 54.5345 28.2539 54.9082 28.7188C55.291 29.1836 55.7513 29.5482 56.2891 29.8125C56.8359 30.0768 57.4557 30.209 58.1484 30.209C59.0417 30.209 59.7982 30.0267 60.418 29.6621C61.0378 29.2975 61.5801 28.8099 62.0449 28.1992L63.5762 29.416C63.2572 29.8991 62.8516 30.3594 62.3594 30.7969C61.8672 31.2344 61.2611 31.5898 60.541 31.8633C59.8301 32.1367 58.987 32.2734 58.0117 32.2734ZM69.25 20.3652V32H66.7207V17.207H69.1133L69.25 20.3652ZM68.6484 24.043L67.5957 24.002C67.6048 22.9902 67.7552 22.056 68.0469 21.1992C68.3385 20.3333 68.7487 19.5814 69.2773 18.9434C69.806 18.3053 70.4349 17.8132 71.1641 17.4668C71.9023 17.1113 72.7181 16.9336 73.6113 16.9336C74.3405 16.9336 74.9967 17.0339 75.5801 17.2344C76.1634 17.4258 76.6602 17.7357 77.0703 18.1641C77.4896 18.5924 77.8086 19.1484 78.0273 19.832C78.2461 20.5065 78.3555 21.3314 78.3555 22.3066V32H75.8125V22.2793C75.8125 21.5046 75.6986 20.8848 75.4707 20.4199C75.2428 19.946 74.9102 19.6042 74.4727 19.3945C74.0352 19.1758 73.4974 19.0664 72.8594 19.0664C72.2305 19.0664 71.6562 19.1986 71.1367 19.4629C70.6263 19.7272 70.1842 20.0918 69.8105 20.5566C69.446 21.0215 69.1589 21.5547 68.9492 22.1562C68.7487 22.7487 68.6484 23.3776 68.6484 24.043ZM90.8105 28.0762C90.8105 27.7116 90.7285 27.3743 90.5645 27.0645C90.4095 26.7454 90.0859 26.4583 89.5938 26.2031C89.1107 25.9388 88.3815 25.7109 87.4062 25.5195C86.5859 25.3464 85.8431 25.1413 85.1777 24.9043C84.5215 24.6673 83.9609 24.3802 83.4961 24.043C83.0404 23.7057 82.6895 23.3092 82.4434 22.8535C82.1973 22.3978 82.0742 21.8646 82.0742 21.2539C82.0742 20.6706 82.2018 20.1191 82.457 19.5996C82.7214 19.0801 83.0905 18.6198 83.5645 18.2188C84.0475 17.8177 84.6263 17.5033 85.3008 17.2754C85.9753 17.0475 86.7272 16.9336 87.5566 16.9336C88.7415 16.9336 89.7533 17.1432 90.5918 17.5625C91.4303 17.9818 92.0729 18.5423 92.5195 19.2441C92.9661 19.9368 93.1895 20.707 93.1895 21.5547H90.6602C90.6602 21.1445 90.5371 20.748 90.291 20.3652C90.054 19.9733 89.7031 19.6497 89.2383 19.3945C88.7826 19.1393 88.222 19.0117 87.5566 19.0117C86.8548 19.0117 86.2852 19.1211 85.8477 19.3398C85.4193 19.5495 85.1048 19.8184 84.9043 20.1465C84.7129 20.4746 84.6172 20.821 84.6172 21.1855C84.6172 21.459 84.6628 21.7051 84.7539 21.9238C84.8542 22.1335 85.0273 22.3294 85.2734 22.5117C85.5195 22.6849 85.8659 22.849 86.3125 23.0039C86.7591 23.1589 87.3288 23.3138 88.0215 23.4688C89.2337 23.7422 90.2318 24.0703 91.0156 24.4531C91.7995 24.8359 92.3828 25.3053 92.7656 25.8613C93.1484 26.4173 93.3398 27.0918 93.3398 27.8848C93.3398 28.5319 93.2031 29.1243 92.9297 29.6621C92.6654 30.1999 92.278 30.6647 91.7676 31.0566C91.2663 31.4395 90.6647 31.7402 89.9629 31.959C89.2702 32.1686 88.4909 32.2734 87.625 32.2734C86.3216 32.2734 85.2188 32.041 84.3164 31.5762C83.4141 31.1113 82.7305 30.5098 82.2656 29.7715C81.8008 29.0332 81.5684 28.2539 81.5684 27.4336H84.1113C84.1478 28.1263 84.3483 28.6777 84.7129 29.0879C85.0775 29.4889 85.5241 29.776 86.0527 29.9492C86.5814 30.1133 87.1055 30.1953 87.625 30.1953C88.3177 30.1953 88.8965 30.1042 89.3613 29.9219C89.8353 29.7396 90.1953 29.4889 90.4414 29.1699C90.6875 28.8509 90.8105 28.4863 90.8105 28.0762ZM102.801 32.2734C101.771 32.2734 100.837 32.1003 99.998 31.7539C99.1686 31.3984 98.4531 30.9017 97.8516 30.2637C97.2591 29.6257 96.8034 28.8691 96.4844 27.9941C96.1654 27.1191 96.0059 26.1621 96.0059 25.123V24.5488C96.0059 23.3457 96.1836 22.2747 96.5391 21.3359C96.8945 20.388 97.3776 19.5859 97.9883 18.9297C98.599 18.2734 99.2917 17.7767 100.066 17.4395C100.841 17.1022 101.643 16.9336 102.473 16.9336C103.53 16.9336 104.441 17.1159 105.207 17.4805C105.982 17.8451 106.615 18.3555 107.107 19.0117C107.6 19.6589 107.964 20.4245 108.201 21.3086C108.438 22.1836 108.557 23.1406 108.557 24.1797V25.3145H97.5098V23.25H106.027V23.0586C105.991 22.4023 105.854 21.7643 105.617 21.1445C105.389 20.5247 105.025 20.0143 104.523 19.6133C104.022 19.2122 103.339 19.0117 102.473 19.0117C101.898 19.0117 101.37 19.1348 100.887 19.3809C100.404 19.6178 99.9889 19.9733 99.6426 20.4473C99.2962 20.9212 99.0273 21.5 98.8359 22.1836C98.6445 22.8672 98.5488 23.6556 98.5488 24.5488V25.123C98.5488 25.8249 98.6445 26.4857 98.8359 27.1055C99.0365 27.7161 99.3236 28.2539 99.6973 28.7188C100.08 29.1836 100.54 29.5482 101.078 29.8125C101.625 30.0768 102.245 30.209 102.938 30.209C103.831 30.209 104.587 30.0267 105.207 29.6621C105.827 29.2975 106.369 28.8099 106.834 28.1992L108.365 29.416C108.046 29.8991 107.641 30.3594 107.148 30.7969C106.656 31.2344 106.05 31.5898 105.33 31.8633C104.619 32.1367 103.776 32.2734 102.801 32.2734Z" fill="white"/>
<path d="M128.84 12.0938V32H125.094V12.0938H128.84ZM135.02 12.0938V15.0605H118.982V12.0938H135.02ZM139.9 20.2285V32H136.291V17.207H139.709L139.9 20.2285ZM144.398 17.1113L144.344 20.4746C144.143 20.4382 143.915 20.4108 143.66 20.3926C143.414 20.3743 143.182 20.3652 142.963 20.3652C142.407 20.3652 141.919 20.4427 141.5 20.5977C141.081 20.7435 140.73 20.9577 140.447 21.2402C140.174 21.5228 139.964 21.8691 139.818 22.2793C139.673 22.6803 139.59 23.1361 139.572 23.6465L138.793 23.5508C138.793 22.612 138.889 21.7415 139.08 20.9395C139.271 20.1374 139.549 19.4355 139.914 18.834C140.279 18.2324 140.734 17.7676 141.281 17.4395C141.837 17.1022 142.475 16.9336 143.195 16.9336C143.396 16.9336 143.61 16.9518 143.838 16.9883C144.075 17.0156 144.262 17.0566 144.398 17.1113ZM154.064 28.8555V22.0332C154.064 21.5319 153.978 21.099 153.805 20.7344C153.632 20.3698 153.367 20.0872 153.012 19.8867C152.656 19.6862 152.205 19.5859 151.658 19.5859C151.175 19.5859 150.751 19.668 150.387 19.832C150.031 19.9961 149.758 20.2285 149.566 20.5293C149.375 20.821 149.279 21.1582 149.279 21.541H145.656C145.656 20.9303 145.802 20.3516 146.094 19.8047C146.385 19.2487 146.8 18.7565 147.338 18.3281C147.885 17.8906 148.536 17.5488 149.293 17.3027C150.059 17.0566 150.915 16.9336 151.863 16.9336C152.984 16.9336 153.982 17.125 154.857 17.5078C155.742 17.8815 156.434 18.4466 156.936 19.2031C157.446 19.9596 157.701 20.9121 157.701 22.0605V28.5137C157.701 29.252 157.747 29.8854 157.838 30.4141C157.938 30.9336 158.084 31.3848 158.275 31.7676V32H154.598C154.424 31.6263 154.292 31.1523 154.201 30.5781C154.11 29.9948 154.064 29.4206 154.064 28.8555ZM154.57 22.9902L154.598 25.1367H152.314C151.749 25.1367 151.253 25.196 150.824 25.3145C150.396 25.4238 150.045 25.5879 149.771 25.8066C149.498 26.0163 149.293 26.2715 149.156 26.5723C149.02 26.8639 148.951 27.1966 148.951 27.5703C148.951 27.9349 149.033 28.263 149.197 28.5547C149.37 28.8464 149.617 29.0788 149.936 29.252C150.264 29.416 150.646 29.498 151.084 29.498C151.722 29.498 152.278 29.3704 152.752 29.1152C153.226 28.8509 153.595 28.5319 153.859 28.1582C154.124 27.7845 154.265 27.429 154.283 27.0918L155.322 28.6504C155.195 29.0241 155.003 29.4206 154.748 29.8398C154.493 30.2591 154.165 30.651 153.764 31.0156C153.363 31.3802 152.88 31.681 152.314 31.918C151.749 32.1549 151.093 32.2734 150.346 32.2734C149.389 32.2734 148.532 32.082 147.775 31.6992C147.019 31.3164 146.422 30.7923 145.984 30.127C145.547 29.4616 145.328 28.7051 145.328 27.8574C145.328 27.0736 145.474 26.3809 145.766 25.7793C146.057 25.1777 146.49 24.6719 147.064 24.2617C147.639 23.8424 148.35 23.528 149.197 23.3184C150.054 23.0996 151.034 22.9902 152.137 22.9902H154.57ZM167.025 29.4297C167.536 29.4297 167.992 29.3294 168.393 29.1289C168.794 28.9284 169.113 28.6458 169.35 28.2812C169.596 27.9167 169.728 27.4928 169.746 27.0098H173.15C173.132 28.0124 172.85 28.9102 172.303 29.7031C171.756 30.4961 171.027 31.125 170.115 31.5898C169.213 32.0456 168.201 32.2734 167.08 32.2734C165.941 32.2734 164.947 32.082 164.1 31.6992C163.252 31.3164 162.546 30.7832 161.98 30.0996C161.424 29.416 161.005 28.623 160.723 27.7207C160.449 26.8184 160.312 25.8522 160.312 24.8223V24.3848C160.312 23.3548 160.449 22.3887 160.723 21.4863C161.005 20.584 161.424 19.791 161.98 19.1074C162.546 18.4238 163.252 17.8906 164.1 17.5078C164.947 17.125 165.936 16.9336 167.066 16.9336C168.26 16.9336 169.309 17.166 170.211 17.6309C171.122 18.0957 171.833 18.752 172.344 19.5996C172.863 20.4473 173.132 21.4453 173.15 22.5938H169.746C169.728 22.0651 169.609 21.5911 169.391 21.1719C169.172 20.7526 168.862 20.4154 168.461 20.1602C168.06 19.9049 167.572 19.7773 166.998 19.7773C166.387 19.7773 165.877 19.9049 165.467 20.1602C165.066 20.4154 164.751 20.7663 164.523 21.2129C164.305 21.6504 164.15 22.1426 164.059 22.6895C163.977 23.2272 163.936 23.7923 163.936 24.3848V24.8223C163.936 25.4238 163.977 25.998 164.059 26.5449C164.15 27.0918 164.305 27.584 164.523 28.0215C164.751 28.4499 165.066 28.7917 165.467 29.0469C165.877 29.3021 166.396 29.4297 167.025 29.4297ZM179.166 10.9863V32H175.557V10.9863H179.166ZM188.436 17.207L181.996 24.4395L178.51 27.9805L177.361 25.1777L180.055 21.7871L184.074 17.207H188.436ZM184.744 32L180.164 25.1094L182.57 22.7715L188.928 32H184.744ZM196.721 32.2734C195.6 32.2734 194.592 32.0911 193.699 31.7266C192.806 31.362 192.045 30.8561 191.416 30.209C190.796 29.5527 190.318 28.7917 189.98 27.9258C189.652 27.0508 189.488 26.112 189.488 25.1094V24.5625C189.488 23.4232 189.652 22.3887 189.98 21.459C190.309 20.5202 190.773 19.7135 191.375 19.0391C191.977 18.3646 192.697 17.8451 193.535 17.4805C194.374 17.1159 195.299 16.9336 196.311 16.9336C197.359 16.9336 198.284 17.1113 199.086 17.4668C199.888 17.8132 200.558 18.3053 201.096 18.9434C201.633 19.5814 202.039 20.347 202.312 21.2402C202.586 22.1243 202.723 23.1042 202.723 24.1797V25.6973H191.129V23.209H199.168V22.9355C199.15 22.3613 199.04 21.8372 198.84 21.3633C198.639 20.8802 198.329 20.4974 197.91 20.2148C197.491 19.9232 196.949 19.7773 196.283 19.7773C195.745 19.7773 195.276 19.8958 194.875 20.1328C194.483 20.3607 194.155 20.6888 193.891 21.1172C193.635 21.5365 193.444 22.0378 193.316 22.6211C193.189 23.2044 193.125 23.8516 193.125 24.5625V25.1094C193.125 25.7292 193.207 26.3034 193.371 26.832C193.544 27.3607 193.795 27.821 194.123 28.2129C194.46 28.5957 194.861 28.8965 195.326 29.1152C195.8 29.3249 196.338 29.4297 196.939 29.4297C197.696 29.4297 198.38 29.2839 198.99 28.9922C199.61 28.6914 200.148 28.2493 200.604 27.666L202.422 29.5527C202.112 30.0085 201.693 30.446 201.164 30.8652C200.645 31.2845 200.016 31.6263 199.277 31.8906C198.539 32.1458 197.687 32.2734 196.721 32.2734ZM208.752 20.2285V32H205.143V17.207H208.561L208.752 20.2285ZM213.25 17.1113L213.195 20.4746C212.995 20.4382 212.767 20.4108 212.512 20.3926C212.266 20.3743 212.033 20.3652 211.814 20.3652C211.258 20.3652 210.771 20.4427 210.352 20.5977C209.932 20.7435 209.581 20.9577 209.299 21.2402C209.025 21.5228 208.816 21.8691 208.67 22.2793C208.524 22.6803 208.442 23.1361 208.424 23.6465L207.645 23.5508C207.645 22.612 207.74 21.7415 207.932 20.9395C208.123 20.1374 208.401 19.4355 208.766 18.834C209.13 18.2324 209.586 17.7676 210.133 17.4395C210.689 17.1022 211.327 16.9336 212.047 16.9336C212.247 16.9336 212.462 16.9518 212.689 16.9883C212.926 17.0156 213.113 17.0566 213.25 17.1113Z" fill="black"/>
</svg>
